<?xml version="1.0" encoding="utf-8"?>
<svg x="0pt" y="10pt" width="90pt" height="20pt" viewBox="0 10 90 20" xmlns="http://www.w3.org/2000/svg" xmlns:xlink="http://www.w3.org/1999/xlink">
  <g id="1">
    <title>Layer 1</title>
    <clipPath id="3">
      <use xlink:href="#2"/>
      <path id="2" d="M0,10.5775 C0,10.5775,90,10.5775,90,10.5775 C90,10.5775,90,30.5775,90,30.5775 C90,30.5775,0,30.5775,0,30.5775 C0,30.5775,0,10.5775,0,10.5775 z"/>
    </clipPath>
    <g id="4" style="clip-path:url(#3);">
      <title>Clipping Group</title>
      <g id="5">
        <title>Group</title>
        <g id="6">
          <title>Group</title>
          <g id="7">
            <title>Group</title>
            <g id="8">
              <title>Group</title>
              <defs>
                <title>Shape 1</title>
                <g id="9">
                  <defs>
                    <path id="10" d="M1.24439,13.9403 C1.38719,13.7788,1.62409,13.6981,1.95511,13.6981 C1.95511,13.6981,6.0247,13.6981,6.0247,13.6981 C6.54394,13.6981,6.88794,13.6541,7.0567,13.5661 C7.15406,13.7862,7.20274,14.0393,7.20274,14.3255 C7.20274,14.6337,7.12972,14.8575,6.98368,14.9969 C6.83764,15.1363,6.60885,15.206,6.2973,15.206 C6.2973,15.206,5.11926,15.206,5.11926,15.206 C5.11926,15.206,5.11926,20.28,5.11926,20.28 C5.11926,20.735,5.16145,21.0872,5.24583,21.3367 C5.06409,21.4981,4.74606,21.5788,4.29172,21.5788 C3.86983,21.5788,3.57126,21.5054,3.39602,21.3587 C3.22077,21.2119,3.13315,20.9514,3.13315,20.5772 C3.13315,20.5772,3.13315,15.206,3.13315,15.206 C3.13315,15.206,2.1693,15.206,2.1693,15.206 C1.66953,15.206,1.33526,15.2501,1.16651,15.3381 C1.07564,15.1547,1.0302,14.9345,1.0302,14.6777 C1.0302,14.3475,1.1016,14.1017,1.24439,13.9403 z M6.45308,19.0143 C6.45308,18.1117,6.69485,17.3725,7.1784,16.7965 C7.66194,16.2205,8.26395,15.9325,8.9844,15.9325 C9.57504,15.9325,10.0553,16.1416,10.4253,16.5598 C10.7758,16.303,11.123,16.1746,11.467,16.1746 C11.85,16.1746,12.0415,16.3801,12.0415,16.791 C12.0415,16.791,12.0415,19.7077,12.0415,19.7077 C12.0415,20.0305,12.1453,20.192,12.353,20.192 C12.4893,20.192,12.6224,20.1369,12.7522,20.0269 C12.8366,20.1296,12.8787,20.2543,12.8787,20.4011 C12.8787,20.6726,12.7295,20.9221,12.4309,21.1495 C12.1323,21.377,11.7851,21.4907,11.3892,21.4907 C10.6817,21.4907,10.315,21.0872,10.289,20.28 C10.1787,20.6983,9.96123,21.0193,9.6367,21.2431 C9.31217,21.4669,8.93572,21.5788,8.50734,21.5788 C7.89723,21.5788,7.40232,21.3458,7.02262,20.8799 C6.64292,20.4139,6.45308,19.7921,6.45308,19.0143 z M8.58523,20.0269 C8.74749,20.2984,8.96493,20.4341,9.23753,20.4341 C9.82817,20.4341,10.1235,19.8398,10.1235,18.6511 C10.1235,18.6511,10.1235,17.3193,10.1235,17.3193 C9.9093,17.0404,9.65617,16.901,9.3641,16.901 C9.05255,16.901,8.80266,17.0661,8.61444,17.3963 C8.42621,17.7265,8.3321,18.1961,8.3321,18.8052 C8.3321,19.3481,8.41647,19.7554,8.58523,20.0269 z M13.901,16.1416 C14.1801,16.0315,14.4365,15.9765,14.6701,15.9765 C15.0985,15.9765,15.3127,16.2076,15.3127,16.6699 C15.3127,16.6699,15.3127,17.2092,15.3127,17.2092 C15.5139,16.8277,15.7881,16.5195,16.1354,16.2847 C16.4826,16.0499,16.851,15.9325,17.2404,15.9325 C17.6298,15.9325,17.9511,16.0407,18.2043,16.2571 C18.4574,16.4736,18.6196,16.7873,18.691,17.1982 C18.8923,16.824,19.1746,16.5195,19.5381,16.2847 C19.9015,16.0499,20.2812,15.9325,20.6772,15.9325 C21.1445,15.9325,21.5144,16.0847,21.787,16.3892 C22.0597,16.6937,22.196,17.1248,22.196,17.6825 C22.196,17.932,22.1862,18.2805,22.1667,18.7281 C22.1473,19.1757,22.1375,19.5022,22.1375,19.7077 C22.1375,20.0379,22.2511,20.203,22.4783,20.203 C22.6276,20.203,22.7541,20.1443,22.858,20.0269 C22.9424,20.1223,22.9846,20.2433,22.9846,20.3901 C22.9846,20.6689,22.8369,20.9221,22.5416,21.1495 C22.2463,21.377,21.8779,21.4907,21.4366,21.4907 C20.9952,21.4907,20.6772,21.3862,20.4824,21.1771 C20.2877,20.9679,20.1904,20.5992,20.1904,20.0709 C20.1904,19.8508,20.2017,19.4857,20.2244,18.9758 C20.2472,18.4658,20.2585,18.1558,20.2585,18.0457 C20.2585,17.5614,20.0963,17.3193,19.7717,17.3193 C19.5121,17.3193,19.2736,17.4495,19.0561,17.71 C18.8387,17.9705,18.73,18.2291,18.73,18.486 C18.73,18.486,18.73,20.192,18.73,20.192 C18.73,20.6249,18.7754,20.9771,18.8663,21.2486 C18.691,21.41,18.386,21.4907,17.9511,21.4907 C17.5422,21.4907,17.255,21.4174,17.0895,21.2706 C16.924,21.1239,16.8412,20.8634,16.8412,20.4892 C16.8412,20.4892,16.8412,18.0457,16.8412,18.0457 C16.8412,17.5614,16.679,17.3193,16.3544,17.3193 C16.0948,17.3193,15.8579,17.4495,15.6437,17.71 C15.4295,17.9705,15.3224,18.2291,15.3224,18.486 C15.3224,18.486,15.3224,20.192,15.3224,20.192 C15.3224,20.6469,15.3646,20.9991,15.449,21.2486 C15.2673,21.41,14.9525,21.4907,14.5046,21.4907 C14.0957,21.4907,13.8101,21.4174,13.6479,21.2706 C13.4856,21.1239,13.4045,20.8634,13.4045,20.4892 C13.4045,20.4892,13.4045,17.7485,13.4045,17.7485 C13.4045,17.0588,13.3558,16.6589,13.2584,16.5488 C13.4077,16.3947,13.6219,16.259,13.901,16.1416 z M24.0166,16.1416 C24.2957,16.0315,24.552,15.9765,24.7857,15.9765 C25.2141,15.9765,25.4283,16.2076,25.4283,16.6699 C25.4283,16.6699,25.4283,17.2092,25.4283,17.2092 C25.6295,16.8277,25.9037,16.5195,26.2509,16.2847 C26.5982,16.0499,26.9665,15.9325,27.356,15.9325 C27.7454,15.9325,28.0667,16.0407,28.3198,16.2571 C28.5729,16.4736,28.7352,16.7873,28.8066,17.1982 C29.0078,16.824,29.2901,16.5195,29.6536,16.2847 C30.0171,16.0499,30.3968,15.9325,30.7927,15.9325 C31.26,15.9325,31.63,16.0847,31.9026,16.3892 C32.1752,16.6937,32.3115,17.1248,32.3115,17.6825 C32.3115,17.932,32.3018,18.2805,32.2823,18.7281 C32.2628,19.1757,32.2531,19.5022,32.2531,19.7077 C32.2531,20.0379,32.3667,20.203,32.5938,20.203 C32.7431,20.203,32.8697,20.1443,32.9735,20.0269 C33.0579,20.1223,33.1001,20.2433,33.1001,20.3901 C33.1001,20.6689,32.9524,20.9221,32.6571,21.1495 C32.3618,21.377,31.9935,21.4907,31.5521,21.4907 C31.1108,21.4907,30.7927,21.3862,30.598,21.1771 C30.4033,20.9679,30.3059,20.5992,30.3059,20.0709 C30.3059,19.8508,30.3173,19.4857,30.34,18.9758 C30.3627,18.4658,30.3741,18.1558,30.3741,18.0457 C30.3741,17.5614,30.2118,17.3193,29.8873,17.3193 C29.6277,17.3193,29.3891,17.4495,29.1717,17.71 C28.9543,17.9705,28.8455,18.2291,28.8455,18.486 C28.8455,18.486,28.8455,20.192,28.8455,20.192 C28.8455,20.6249,28.891,20.9771,28.9818,21.2486 C28.8066,21.41,28.5015,21.4907,28.0667,21.4907 C27.6578,21.4907,27.3706,21.4174,27.205,21.2706 C27.0395,21.1239,26.9568,20.8634,26.9568,20.4892 C26.9568,20.4892,26.9568,18.0457,26.9568,18.0457 C26.9568,17.5614,26.7945,17.3193,26.47,17.3193 C26.2104,17.3193,25.9735,17.4495,25.7593,17.71 C25.5451,17.9705,25.438,18.2291,25.438,18.486 C25.438,18.486,25.438,20.192,25.438,20.192 C25.438,20.6469,25.4802,20.9991,25.5646,21.2486 C25.3828,21.41,25.068,21.4907,24.6202,21.4907 C24.2113,21.4907,23.9257,21.4174,23.7634,21.2706 C23.6012,21.1239,23.52,20.8634,23.52,20.4892 C23.52,20.4892,23.52,17.7485,23.52,17.7485 C23.52,17.0588,23.4713,16.6589,23.374,16.5488 C23.5233,16.3947,23.7375,16.259,24.0166,16.1416 z M34.0834,16.1306 C34.3625,16.0205,34.6189,15.9655,34.8526,15.9655 C35.2874,15.9655,35.5049,16.1966,35.5049,16.6589 C35.5049,16.6589,35.5049,19.5426,35.5049,19.5426 C35.5049,20.0342,35.6898,20.28,36.0598,20.28 C36.3259,20.28,36.558,20.1571,36.7559,19.9113 C36.9539,19.6655,37.0529,19.4068,37.0529,19.1354 C37.0529,19.1354,37.0529,17.7375,37.0529,17.7375 C37.0529,17.0551,37.0074,16.6552,36.9166,16.5378 C37.0658,16.3837,37.28,16.2498,37.5591,16.1361 C37.8382,16.0223,38.0946,15.9655,38.3283,15.9655 C38.7566,15.9655,38.9708,16.1966,38.9708,16.6589 C38.9708,16.6589,38.9708,21.2156,38.9708,21.2156 C38.9708,22.0668,38.6706,22.7308,38.0703,23.2078 C37.4699,23.6847,36.7251,23.9232,35.8359,23.9232 C35.3037,23.9232,34.8655,23.8315,34.5215,23.648 C34.1775,23.4646,34.0055,23.2078,34.0055,22.8776 C34.0055,22.6941,34.0607,22.5327,34.1711,22.3933 C34.2814,22.2539,34.4112,22.1731,34.5605,22.1511 C34.8396,22.5987,35.2615,22.8225,35.8261,22.8225 C36.0728,22.8225,36.2821,22.7748,36.4541,22.6794 C36.6261,22.5841,36.7543,22.4758,36.8387,22.3548 C36.9231,22.2337,36.988,22.0612,37.0334,21.8375 C37.0788,21.6137,37.1048,21.4357,37.1113,21.3036 C37.1178,21.1716,37.121,20.9881,37.121,20.7533 C37.121,20.7533,37.121,20.3901,37.121,20.3901 C36.9263,20.7643,36.6634,21.056,36.3324,21.2651 C36.0014,21.4742,35.6314,21.5788,35.2225,21.5788 C34.7033,21.5788,34.3009,21.4229,34.0153,21.111 C33.7297,20.7992,33.5869,20.3497,33.5869,19.7627 C33.5869,19.7627,33.5869,17.7375,33.5869,17.7375 C33.5869,17.0478,33.5382,16.6479,33.4409,16.5378 C33.5901,16.3837,33.8043,16.248,34.0834,16.1306 z M39.8081,19.9939 C39.9314,19.8324,40.071,19.7407,40.2268,19.7187 C40.3955,19.9829,40.6211,20.1883,40.9034,20.3351 C41.1857,20.4818,41.4762,20.5552,41.7748,20.5552 C42.0149,20.5552,42.1999,20.5075,42.3297,20.4121 C42.4595,20.3167,42.5244,20.1883,42.5244,20.0269 C42.5244,19.9755,42.5179,19.9278,42.5049,19.8838 C42.492,19.8398,42.4692,19.8012,42.4368,19.7682 C42.4043,19.7352,42.3735,19.704,42.3443,19.6747 C42.3151,19.6453,42.2713,19.6178,42.2129,19.5921 C42.1545,19.5664,42.1041,19.5444,42.062,19.5261 C42.0198,19.5077,41.9614,19.4894,41.8867,19.471 C41.8121,19.4527,41.752,19.4362,41.7066,19.4215 C41.6612,19.4068,41.5946,19.3903,41.507,19.372 C41.4194,19.3536,41.3529,19.3371,41.3074,19.3225 C41.0932,19.2638,40.9131,19.2032,40.7671,19.1409 C40.6211,19.0785,40.4685,18.9923,40.3095,18.8822 C40.1505,18.7721,40.0288,18.6272,39.9444,18.4474 C39.86,18.2677,39.8179,18.0567,39.8179,17.8146 C39.8179,17.2276,40.0515,16.7561,40.5188,16.4002 C40.9862,16.0444,41.6028,15.8664,42.3686,15.8664 C42.8684,15.8664,43.2984,15.9453,43.6586,16.1031 C44.0189,16.2608,44.199,16.4975,44.199,16.813 C44.199,16.9671,44.1503,17.1193,44.0529,17.2697 C43.9556,17.4202,43.8323,17.5137,43.683,17.5504 C43.2676,17.1322,42.836,16.923,42.3881,16.923 C42.1804,16.923,42.01,16.9744,41.877,17.0771 C41.7439,17.1799,41.6774,17.3119,41.6774,17.4734 C41.6774,17.6495,41.7537,17.7815,41.9062,17.8696 C42.0587,17.9577,42.2972,18.042,42.6218,18.1228 C42.6218,18.1228,43.0015,18.2218,43.0015,18.2218 C43.0858,18.2438,43.2027,18.2805,43.352,18.3319 C43.5013,18.3832,43.6148,18.4309,43.6927,18.475 C43.7706,18.519,43.8598,18.5814,43.9605,18.6621 C44.0611,18.7428,44.1373,18.829,44.1892,18.9207 C44.2412,19.0124,44.2866,19.1225,44.3256,19.2509 C44.3645,19.3793,44.384,19.5206,44.384,19.6747 C44.384,20.2397,44.1649,20.7038,43.7268,21.067 C43.2887,21.4302,42.5861,21.6118,41.619,21.6118 C41.0348,21.6118,40.5545,21.5238,40.1781,21.3477 C39.8016,21.1716,39.6134,20.9001,39.6134,20.5332 C39.6134,20.3351,39.6783,20.1553,39.8081,19.9939 z M45.1531,14.1934 C45.1596,14.1347,45.2034,14.0687,45.2845,13.9953 C45.3657,13.9219,45.5085,13.8522,45.7129,13.7862 C45.9174,13.7201,46.1559,13.6871,46.4285,13.6871 C46.4285,13.6871,49.4369,13.6871,49.4369,13.6871 C49.8912,13.6871,50.2385,13.6468,50.4786,13.5661 C50.5695,13.7348,50.6149,13.9513,50.6149,14.2154 C50.6149,14.4943,50.5565,14.7162,50.4397,14.8813 C50.3228,15.0464,50.0924,15.129,49.7484,15.129 C49.7484,15.129,47.2853,15.129,47.2853,15.129 C47.2853,15.129,47.2853,17.0111,47.2853,17.0111 C47.2853,17.0111,49.6997,16.934,49.6997,16.934 C49.7452,17.1762,49.7679,17.367,49.7679,17.5064 C49.7679,18.0641,49.5602,18.3429,49.1448,18.3429 C48.5412,18.3429,47.9213,18.3319,47.2853,18.3099 C47.2853,18.3099,47.2853,19.1354,47.2853,19.1354 C47.2853,19.5389,47.368,19.8251,47.5335,19.9939 C47.699,20.1626,47.9895,20.247,48.4049,20.247 C48.8203,20.247,49.2065,20.1736,49.5634,20.0269 C49.9204,19.8801,50.1898,19.682,50.3715,19.4325 C50.4689,19.5206,50.5597,19.6508,50.6441,19.8233 C50.7285,19.9957,50.7707,20.1773,50.7707,20.3681 C50.7707,20.7643,50.537,21.0835,50.0697,21.3256 C49.6024,21.5678,48.9501,21.6889,48.1128,21.6889 C47.1587,21.6889,46.4512,21.5036,45.9904,21.133 C45.5295,20.7625,45.2991,20.148,45.2991,19.2894 C45.2991,19.2894,45.2991,15.5142,45.2991,15.5142 C45.2991,14.7584,45.2505,14.3182,45.1531,14.1934 z M51.2769,16.5488 C51.4262,16.3947,51.6404,16.2608,51.9195,16.1471 C52.1986,16.0333,52.455,15.9765,52.6886,15.9765 C53.117,15.9765,53.3312,16.2076,53.3312,16.6699 C53.3312,16.6699,53.3312,17.2092,53.3312,17.2092 C53.5259,16.835,53.8083,16.5286,54.1782,16.2902 C54.5482,16.0517,54.9441,15.9325,55.366,15.9325 C55.8463,15.9325,56.2211,16.0865,56.4905,16.3947 C56.7599,16.7029,56.8945,17.1322,56.8945,17.6825 C56.8945,17.932,56.8848,18.2805,56.8653,18.7281 C56.8459,19.1757,56.8361,19.5022,56.8361,19.7077 C56.8361,20.0379,56.9497,20.203,57.1769,20.203 C57.3262,20.203,57.4527,20.1443,57.5566,20.0269 C57.641,20.1223,57.6831,20.2433,57.6831,20.3901 C57.6831,20.6689,57.5355,20.9221,57.2402,21.1495 C56.9448,21.377,56.5765,21.4907,56.1351,21.4907 C55.7003,21.4907,55.3855,21.3862,55.1908,21.1771 C54.996,20.9679,54.8987,20.5992,54.8987,20.0709 C54.8987,19.8508,54.9084,19.4857,54.9279,18.9758 C54.9474,18.4658,54.9571,18.1558,54.9571,18.0457 C54.9571,17.5614,54.7916,17.3193,54.4606,17.3193 C54.1815,17.3193,53.9251,17.4495,53.6914,17.71 C53.4578,17.9705,53.341,18.2291,53.341,18.486 C53.341,18.486,53.341,20.192,53.341,20.192 C53.341,20.6469,53.3831,20.9991,53.4675,21.2486 C53.2858,21.41,52.971,21.4907,52.5231,21.4907 C52.1142,21.4907,51.8287,21.4174,51.6664,21.2706 C51.5041,21.1239,51.423,20.8634,51.423,20.4892 C51.423,20.4892,51.423,17.7485,51.423,17.7485 C51.423,17.0588,51.3743,16.6589,51.2769,16.5488 z M57.985,19.0143 C57.985,18.1117,58.2267,17.3725,58.7103,16.7965 C59.1938,16.2205,59.7958,15.9325,60.5163,15.9325 C61.1134,15.9325,61.5937,16.1452,61.9572,16.5708 C62.2882,16.3067,62.6354,16.1746,62.9989,16.1746 C63.3819,16.1746,63.5733,16.3801,63.5733,16.791 C63.5733,16.791,63.5733,21.2156,63.5733,21.2156 C63.5733,21.7953,63.4289,22.2942,63.1401,22.7125 C62.8513,23.1307,62.4813,23.4371,62.0302,23.6315 C61.5791,23.826,61.0777,23.9232,60.526,23.9232 C59.9224,23.9232,59.4502,23.8333,59.1094,23.6535 C58.7687,23.4738,58.5983,23.2151,58.5983,22.8776 C58.5983,22.7015,58.6535,22.5419,58.7638,22.3988 C58.8742,22.2557,59.004,22.1731,59.1533,22.1511 C59.4324,22.5987,59.8413,22.8225,60.38,22.8225 C60.6785,22.8225,60.9236,22.7693,61.115,22.6629 C61.3065,22.5565,61.446,22.3969,61.5337,22.1842 C61.6213,21.9714,61.6781,21.7604,61.704,21.5513 C61.73,21.3422,61.743,21.0762,61.743,20.7533 C61.743,20.7533,61.743,20.3571,61.743,20.3571 C61.6262,20.7533,61.4152,21.056,61.1102,21.2651 C60.8051,21.4742,60.4481,21.5788,60.0392,21.5788 C59.4291,21.5788,58.9342,21.3458,58.5545,20.8799 C58.1748,20.4139,57.985,19.7921,57.985,19.0143 z M59.864,18.8052 C59.864,19.3481,59.9451,19.7554,60.1074,20.0269 C60.2696,20.2984,60.4903,20.4341,60.7694,20.4341 C61.3601,20.4341,61.6554,19.8398,61.6554,18.6511 C61.6554,18.6511,61.6554,17.3193,61.6554,17.3193 C61.4412,17.0404,61.188,16.901,60.896,16.901 C60.5844,16.901,60.3345,17.0661,60.1463,17.3963 C59.9581,17.7265,59.864,18.1961,59.864,18.8052 z M64.3912,14.1384 C64.5404,13.9843,64.7546,13.8504,65.0337,13.7367 C65.3128,13.6229,65.5692,13.5661,65.8028,13.5661 C66.2312,13.5661,66.4454,13.7972,66.4454,14.2595 C66.4454,14.2595,66.4454,19.7077,66.4454,19.7077 C66.4454,20.0379,66.5525,20.203,66.7667,20.203 C66.89,20.203,67.0198,20.1443,67.1561,20.0269 C67.2405,20.1296,67.2827,20.2543,67.2827,20.4011 C67.2827,20.6873,67.1432,20.9404,66.8641,21.1605 C66.585,21.3807,66.2182,21.4907,65.7639,21.4907 C65.3485,21.4907,65.0386,21.3788,64.8341,21.155 C64.6297,20.9312,64.5275,20.5625,64.5275,20.0489 C64.5275,20.0489,64.5275,15.3381,64.5275,15.3381 C64.5275,14.6557,64.482,14.2558,64.3912,14.1384 z M68.3439,16.1416 C68.623,16.0315,68.8794,15.9765,69.113,15.9765 C69.5479,15.9765,69.7653,16.2076,69.7653,16.6699 C69.7653,16.6699,69.7653,19.7077,69.7653,19.7077 C69.7653,20.0379,69.8692,20.203,70.0769,20.203 C70.2002,20.203,70.33,20.1443,70.4663,20.0269 C70.5507,20.1296,70.5929,20.2543,70.5929,20.4011 C70.5929,20.6873,70.4533,20.9404,70.1742,21.1605 C69.8951,21.3807,69.5284,21.4907,69.0741,21.4907 C68.6587,21.4907,68.3504,21.3788,68.1492,21.155 C67.948,20.9312,67.8474,20.5625,67.8474,20.0489 C67.8474,20.0489,67.8474,17.7485,67.8474,17.7485 C67.8474,17.0588,67.7987,16.6589,67.7013,16.5488 C67.8506,16.3947,68.0648,16.259,68.3439,16.1416 z M68.1005,13.9073 C68.3471,13.7091,68.6425,13.6101,68.9865,13.6101 C69.2461,13.6101,69.4554,13.6743,69.6144,13.8027 C69.7734,13.9311,69.853,14.098,69.853,14.3035 C69.853,14.5676,69.7264,14.797,69.4733,14.9914 C69.2201,15.1858,68.9216,15.2831,68.5776,15.2831 C68.3179,15.2831,68.1102,15.2207,67.9545,15.096 C67.7987,14.9712,67.7208,14.8061,67.7208,14.6007 C67.7208,14.3365,67.8474,14.1054,68.1005,13.9073 z M71.1284,19.9939 C71.2517,19.8324,71.3912,19.7407,71.547,19.7187 C71.7158,19.9829,71.9413,20.1883,72.2236,20.3351 C72.506,20.4818,72.7964,20.5552,73.095,20.5552 C73.3352,20.5552,73.5201,20.5075,73.6499,20.4121 C73.7798,20.3167,73.8447,20.1883,73.8447,20.0269 C73.8447,19.9755,73.8382,19.9278,73.8252,19.8838 C73.8122,19.8398,73.7895,19.8012,73.757,19.7682 C73.7246,19.7352,73.6938,19.704,73.6646,19.6747 C73.6353,19.6453,73.5915,19.6178,73.5331,19.5921 C73.4747,19.5664,73.4244,19.5444,73.3822,19.5261 C73.34,19.5077,73.2816,19.4894,73.207,19.471 C73.1323,19.4527,73.0723,19.4362,73.0268,19.4215 C72.9814,19.4068,72.9149,19.3903,72.8273,19.372 C72.7396,19.3536,72.6731,19.3371,72.6277,19.3225 C72.4135,19.2638,72.2334,19.2032,72.0873,19.1409 C71.9413,19.0785,71.7888,18.9923,71.6298,18.8822 C71.4707,18.7721,71.349,18.6272,71.2647,18.4474 C71.1803,18.2677,71.1381,18.0567,71.1381,17.8146 C71.1381,17.2276,71.3718,16.7561,71.8391,16.4002 C72.3064,16.0444,72.923,15.8664,73.6889,15.8664 C74.1887,15.8664,74.6187,15.9453,74.9789,16.1031 C75.3391,16.2608,75.5192,16.4975,75.5192,16.813 C75.5192,16.9671,75.4706,17.1193,75.3732,17.2697 C75.2758,17.4202,75.1525,17.5137,75.0032,17.5504 C74.5878,17.1322,74.1562,16.923,73.7084,16.923 C73.5007,16.923,73.3303,16.9744,73.1972,17.0771 C73.0642,17.1799,72.9976,17.3119,72.9976,17.4734 C72.9976,17.6495,73.0739,17.7815,73.2264,17.8696 C73.379,17.9577,73.6175,18.042,73.942,18.1228 C73.942,18.1228,74.3217,18.2218,74.3217,18.2218 C74.4061,18.2438,74.5229,18.2805,74.6722,18.3319 C74.8215,18.3832,74.9351,18.4309,75.013,18.475 C75.0909,18.519,75.1801,18.5814,75.2807,18.6621 C75.3813,18.7428,75.4576,18.829,75.5095,18.9207 C75.5614,19.0124,75.6068,19.1225,75.6458,19.2509 C75.6847,19.3793,75.7042,19.5206,75.7042,19.6747 C75.7042,20.2397,75.4852,20.7038,75.047,21.067 C74.6089,21.4302,73.9063,21.6118,72.9392,21.6118 C72.3551,21.6118,71.8748,21.5238,71.4983,21.3477 C71.1219,21.1716,70.9336,20.9001,70.9336,20.5332 C70.9336,20.3351,70.9985,20.1553,71.1284,19.9939 z M76.9212,13.7312 C77.2003,13.6211,77.4567,13.5661,77.6903,13.5661 C78.1252,13.5661,78.3426,13.7972,78.3426,14.2595 C78.3426,14.2595,78.3426,17.1762,78.3426,17.1762 C78.5633,16.7873,78.8554,16.4773,79.2189,16.2461 C79.5823,16.015,79.9685,15.8994,80.3774,15.8994 C80.8447,15.8994,81.2147,16.0499,81.4873,16.3507 C81.7599,16.6515,81.8962,17.0845,81.8962,17.6495 C81.8962,17.9063,81.8865,18.2622,81.867,18.7171 C81.8475,19.172,81.8378,19.5022,81.8378,19.7077 C81.8378,20.0379,81.9514,20.203,82.1786,20.203 C82.3278,20.203,82.4544,20.1443,82.5583,20.0269 C82.6426,20.1223,82.6848,20.2433,82.6848,20.3901 C82.6848,20.6689,82.5372,20.9221,82.2418,21.1495 C81.9465,21.377,81.5782,21.4907,81.1368,21.4907 C80.702,21.4907,80.3872,21.3862,80.1924,21.1771 C79.9977,20.9679,79.9004,20.5992,79.9004,20.0709 C79.9004,19.8508,79.9101,19.4802,79.9296,18.9592 C79.949,18.4383,79.9588,18.1191,79.9588,18.0017 C79.9588,17.5174,79.7933,17.2752,79.4622,17.2752 C79.1832,17.2752,78.9268,17.4055,78.6931,17.666 C78.4595,17.9265,78.3426,18.1851,78.3426,18.4419 C78.3426,18.4419,78.3426,20.192,78.3426,20.192 C78.3426,20.6469,78.3848,20.9991,78.4692,21.2486 C78.2875,21.41,77.9727,21.4907,77.5248,21.4907 C77.1159,21.4907,76.8303,21.4174,76.6681,21.2706 C76.5058,21.1239,76.4247,20.8634,76.4247,20.4892 C76.4247,20.4892,76.4247,15.3381,76.4247,15.3381 C76.4247,14.6484,76.376,14.2485,76.2786,14.1384 C76.4279,13.9843,76.6421,13.8486,76.9212,13.7312 z"/>
                  </defs>
                  <use xlink:href="#10" style="fill:#0071ba;fill-opacity:0.5956;fill-rule:nonzero;opacity:1;stroke:none;"/>
                </g>
              </defs>
              <use xlink:href="#9"/>
            </g>
          </g>
        </g>
        <g id="11">
          <title>Group</title>
          <g id="12">
            <title>Group</title>
            <g id="13">
              <title>Group</title>
              <defs>
                <title>Shape 2</title>
                <g id="14">
                  <defs>
                    <path id="15" d="M83.5309,12.7034 C83.5309,12.7034,88.9858,12.7034,88.9858,12.7034 C88.9858,12.7034,88.9858,23.0283,88.9858,23.0283 C88.9858,23.0283,83.5309,23.0283,83.5309,23.0283 C83.5309,23.0283,83.5309,12.7034,83.5309,12.7034 z"/>
                  </defs>
                  <use xlink:href="#15" style="fill:#0071bb;fill-opacity:1;fill-rule:evenodd;opacity:1;stroke:none;"/>
                </g>
              </defs>
              <use xlink:href="#14"/>
            </g>
          </g>
        </g>
        <g id="16">
          <title>Group</title>
          <g id="17">
            <title>Group</title>
            <g id="18">
              <title>Group</title>
              <defs>
                <title>Shape 3</title>
                <g id="19">
                  <defs>
                    <path id="20" d="M84.1052,22.249 C84.0467,21.9958,84.0175,21.7268,84.0175,21.442 C84.0175,21.0017,84.0947,20.6608,84.249,20.4191 C84.4033,20.1774,84.6233,20.0566,84.9092,20.0566 C85.0976,20.0566,85.2625,20.1156,85.4038,20.2335 C85.5451,20.3515,85.6564,20.5212,85.7376,20.7428 C85.835,20.2134,86.1111,19.9487,86.5659,19.9487 C86.9038,19.9487,87.1718,20.0868,87.3699,20.363 C87.5681,20.6392,87.6672,21.0161,87.6672,21.4938 C87.6672,21.6434,87.6574,21.7858,87.6379,21.921 C87.6184,22.0563,87.5892,22.185,87.5502,22.3073 C87.5112,22.4296,87.4552,22.5267,87.3821,22.5986 C87.309,22.6706,87.2237,22.7065,87.1263,22.7065 C87.1263,22.7065,84.8361,22.7065,84.8361,22.7065 C84.5308,22.7065,84.3472,22.7281,84.2855,22.7713 C84.227,22.6792,84.1669,22.5051,84.1052,22.249 z M84.6217,21.8261 C84.6217,21.8261,85.6596,21.8261,85.6596,21.8261 C85.6109,21.1787,85.4062,20.855,85.0456,20.855 C84.7435,20.855,84.5925,21.0579,84.5925,21.4635 C84.5925,21.5614,84.6022,21.6822,84.6217,21.8261 z M87.0922,21.4635 C87.0922,21.265,87.0475,21.1104,86.9582,20.9996 C86.8689,20.8888,86.7397,20.8334,86.5708,20.8334 C86.2427,20.8334,86.0787,21.0363,86.0787,21.442 C86.0787,21.5858,86.0852,21.7139,86.0982,21.8261 C86.0982,21.8261,87.0483,21.8261,87.0483,21.8261 C87.0776,21.7225,87.0922,21.6017,87.0922,21.4635 z M84.3245,19.6897 C84.2563,19.6235,84.197,19.5286,84.1466,19.4049 C84.0963,19.2812,84.0711,19.1675,84.0711,19.0639 C84.0711,18.874,84.1734,18.7791,84.3781,18.7791 C84.3781,18.7791,86.7901,18.7791,86.7901,18.7791 C86.9363,18.7791,87.0093,18.7316,87.0093,18.6367 C87.0093,18.582,86.9834,18.5244,86.9314,18.464 C86.9769,18.4266,87.0321,18.4079,87.0971,18.4079 C87.2237,18.4079,87.3358,18.4698,87.4333,18.5935 C87.5307,18.7172,87.5795,18.8798,87.5795,19.0812 C87.5795,19.2653,87.5299,19.4027,87.4308,19.4934 C87.3318,19.584,87.1685,19.6293,86.9411,19.6293 C86.9411,19.6293,84.8556,19.6293,84.8556,19.6293 C84.5535,19.6293,84.3765,19.6494,84.3245,19.6897 z M85.4549,17.903 C85.2308,17.6526,85.1187,17.3448,85.1187,16.9794 C85.1187,16.6226,85.2276,16.337,85.4452,16.1227 C85.6628,15.9083,85.9617,15.8011,86.3418,15.8011 C86.7446,15.8011,87.0581,15.9256,87.2822,16.1744 C87.5064,16.4233,87.6184,16.7305,87.6184,17.0959 C87.6184,17.4527,87.5096,17.7389,87.292,17.9547 C87.0743,18.1705,86.7771,18.2784,86.4003,18.2784 C85.9974,18.2784,85.6823,18.1533,85.4549,17.903 z M86.985,17.3289 C87.1182,17.257,87.1848,17.1606,87.1848,17.0398 C87.1848,16.9161,87.1182,16.8175,86.985,16.7441 C86.8518,16.6708,86.6471,16.6341,86.371,16.6341 C86.0949,16.6341,85.8902,16.6708,85.7571,16.7441 C85.6239,16.8175,85.5573,16.9161,85.5573,17.0398 C85.5573,17.1606,85.6239,17.2577,85.7571,17.3311 C85.8902,17.4045,86.0949,17.4412,86.371,17.4412 C86.6471,17.4412,86.8518,17.4037,86.985,17.3289 z M86.4831,15.5508 C86.0835,15.5508,85.7562,15.4436,85.5012,15.2293 C85.2462,15.0149,85.1187,14.748,85.1187,14.4287 C85.1187,14.164,85.2129,13.951,85.4014,13.7899 C85.2844,13.6432,85.2259,13.4893,85.2259,13.3281 C85.2259,13.1584,85.3169,13.0735,85.4988,13.0735 C85.4988,13.0735,87.4576,13.0735,87.4576,13.0735 C87.7143,13.0735,87.9352,13.1375,88.1203,13.2655 C88.3055,13.3936,88.4411,13.5576,88.5272,13.7576 C88.6133,13.9575,88.6563,14.1798,88.6563,14.4244 C88.6563,14.6919,88.6165,14.9013,88.5369,15.0523 C88.4574,15.2034,88.3428,15.2789,88.1934,15.2789 C88.1155,15.2789,88.0448,15.2544,87.9815,15.2055 C87.9181,15.1566,87.8816,15.0991,87.8718,15.0329 C88.07,14.9092,88.1691,14.7279,88.1691,14.4891 C88.1691,14.3567,88.1455,14.2481,88.0984,14.1632 C88.0513,14.0784,87.9806,14.0165,87.8864,13.9777 C87.7922,13.9388,87.6988,13.9136,87.6063,13.9021 C87.5137,13.8906,87.3959,13.8849,87.253,13.8849 C87.253,13.8849,87.0776,13.8849,87.0776,13.8849 C87.253,13.9367,87.387,14.0302,87.4796,14.1654 C87.5721,14.3006,87.6184,14.4589,87.6184,14.6402 C87.6184,14.9106,87.5153,15.13,87.309,15.2983 C87.1027,15.4666,86.8274,15.5508,86.4831,15.5508 z M86.3905,14.7178 C86.6309,14.7178,86.8112,14.6819,86.9314,14.6099 C87.0516,14.538,87.1117,14.4402,87.1117,14.3165 C87.1117,14.0546,86.8485,13.9237,86.3223,13.9237 C86.3223,13.9237,85.7327,13.9237,85.7327,13.9237 C85.6093,14.0187,85.5475,14.1309,85.5475,14.2604 C85.5475,14.3985,85.6206,14.5092,85.7668,14.5927 C85.913,14.6761,86.1209,14.7178,86.3905,14.7178 z"/>
                  </defs>
                  <use xlink:href="#20" style="fill:#000000;fill-opacity:1;fill-rule:nonzero;opacity:1;stroke:none;"/>
                </g>
              </defs>
              <use xlink:href="#19"/>
            </g>
            <g id="21">
              <title>Group</title>
              <defs>
                <title>Shape 4</title>
                <g id="22">
                  <defs>
                    <path id="23" d="M84.1052,22.249 C84.0467,21.9958,84.0175,21.7268,84.0175,21.442 C84.0175,21.0017,84.0947,20.6608,84.249,20.4191 C84.4033,20.1774,84.6233,20.0566,84.9092,20.0566 C85.0976,20.0566,85.2625,20.1156,85.4038,20.2335 C85.5451,20.3515,85.6564,20.5212,85.7376,20.7428 C85.835,20.2134,86.1111,19.9487,86.5659,19.9487 C86.9038,19.9487,87.1718,20.0868,87.3699,20.363 C87.5681,20.6392,87.6672,21.0161,87.6672,21.4938 C87.6672,21.6434,87.6574,21.7858,87.6379,21.921 C87.6184,22.0563,87.5892,22.185,87.5502,22.3073 C87.5112,22.4296,87.4552,22.5267,87.3821,22.5986 C87.309,22.6706,87.2237,22.7065,87.1263,22.7065 C87.1263,22.7065,84.8361,22.7065,84.8361,22.7065 C84.5308,22.7065,84.3472,22.7281,84.2855,22.7713 C84.227,22.6792,84.1669,22.5051,84.1052,22.249 z M84.6217,21.8261 C84.6217,21.8261,85.6596,21.8261,85.6596,21.8261 C85.6109,21.1787,85.4062,20.855,85.0456,20.855 C84.7435,20.855,84.5925,21.0579,84.5925,21.4635 C84.5925,21.5614,84.6022,21.6822,84.6217,21.8261 z M87.0922,21.4635 C87.0922,21.265,87.0475,21.1104,86.9582,20.9996 C86.8689,20.8888,86.7397,20.8334,86.5708,20.8334 C86.2427,20.8334,86.0787,21.0363,86.0787,21.442 C86.0787,21.5858,86.0852,21.7139,86.0982,21.8261 C86.0982,21.8261,87.0483,21.8261,87.0483,21.8261 C87.0776,21.7225,87.0922,21.6017,87.0922,21.4635 z M84.3245,19.6897 C84.2563,19.6235,84.197,19.5286,84.1466,19.4049 C84.0963,19.2812,84.0711,19.1675,84.0711,19.0639 C84.0711,18.874,84.1734,18.7791,84.3781,18.7791 C84.3781,18.7791,86.7901,18.7791,86.7901,18.7791 C86.9363,18.7791,87.0093,18.7316,87.0093,18.6367 C87.0093,18.582,86.9834,18.5244,86.9314,18.464 C86.9769,18.4266,87.0321,18.4079,87.0971,18.4079 C87.2237,18.4079,87.3358,18.4698,87.4333,18.5935 C87.5307,18.7172,87.5795,18.8798,87.5795,19.0812 C87.5795,19.2653,87.5299,19.4027,87.4308,19.4934 C87.3318,19.584,87.1685,19.6293,86.9411,19.6293 C86.9411,19.6293,84.8556,19.6293,84.8556,19.6293 C84.5535,19.6293,84.3765,19.6494,84.3245,19.6897 z M85.4549,17.903 C85.2308,17.6526,85.1187,17.3448,85.1187,16.9794 C85.1187,16.6226,85.2276,16.337,85.4452,16.1227 C85.6628,15.9083,85.9617,15.8011,86.3418,15.8011 C86.7446,15.8011,87.0581,15.9256,87.2822,16.1744 C87.5064,16.4233,87.6184,16.7305,87.6184,17.0959 C87.6184,17.4527,87.5096,17.7389,87.292,17.9547 C87.0743,18.1705,86.7771,18.2784,86.4003,18.2784 C85.9974,18.2784,85.6823,18.1533,85.4549,17.903 z M86.985,17.3289 C87.1182,17.257,87.1848,17.1606,87.1848,17.0398 C87.1848,16.9161,87.1182,16.8175,86.985,16.7441 C86.8518,16.6708,86.6471,16.6341,86.371,16.6341 C86.0949,16.6341,85.8902,16.6708,85.7571,16.7441 C85.6239,16.8175,85.5573,16.9161,85.5573,17.0398 C85.5573,17.1606,85.6239,17.2577,85.7571,17.3311 C85.8902,17.4045,86.0949,17.4412,86.371,17.4412 C86.6471,17.4412,86.8518,17.4037,86.985,17.3289 z M86.4831,15.5508 C86.0835,15.5508,85.7562,15.4436,85.5012,15.2293 C85.2462,15.0149,85.1187,14.748,85.1187,14.4287 C85.1187,14.164,85.2129,13.951,85.4014,13.7899 C85.2844,13.6432,85.2259,13.4893,85.2259,13.3281 C85.2259,13.1584,85.3169,13.0735,85.4988,13.0735 C85.4988,13.0735,87.4576,13.0735,87.4576,13.0735 C87.7143,13.0735,87.9352,13.1375,88.1203,13.2655 C88.3055,13.3936,88.4411,13.5576,88.5272,13.7576 C88.6133,13.9575,88.6563,14.1798,88.6563,14.4244 C88.6563,14.6919,88.6165,14.9013,88.5369,15.0523 C88.4574,15.2034,88.3428,15.2789,88.1934,15.2789 C88.1155,15.2789,88.0448,15.2544,87.9815,15.2055 C87.9181,15.1566,87.8816,15.0991,87.8718,15.0329 C88.07,14.9092,88.1691,14.7279,88.1691,14.4891 C88.1691,14.3567,88.1455,14.2481,88.0984,14.1632 C88.0513,14.0784,87.9806,14.0165,87.8864,13.9777 C87.7922,13.9388,87.6988,13.9136,87.6063,13.9021 C87.5137,13.8906,87.3959,13.8849,87.253,13.8849 C87.253,13.8849,87.0776,13.8849,87.0776,13.8849 C87.253,13.9367,87.387,14.0302,87.4796,14.1654 C87.5721,14.3006,87.6184,14.4589,87.6184,14.6402 C87.6184,14.9106,87.5153,15.13,87.309,15.2983 C87.1027,15.4666,86.8274,15.5508,86.4831,15.5508 z M86.3905,14.7178 C86.6309,14.7178,86.8112,14.6819,86.9314,14.6099 C87.0516,14.538,87.1117,14.4402,87.1117,14.3165 C87.1117,14.0546,86.8485,13.9237,86.3223,13.9237 C86.3223,13.9237,85.7327,13.9237,85.7327,13.9237 C85.6093,14.0187,85.5475,14.1309,85.5475,14.2604 C85.5475,14.3985,85.6206,14.5092,85.7668,14.5927 C85.913,14.6761,86.1209,14.7178,86.3905,14.7178 z"/>
                  </defs>
                  <use xlink:href="#23" style="fill:#ffffff;fill-opacity:1;fill-rule:nonzero;opacity:1;stroke:none;"/>
                </g>
              </defs>
              <use xlink:href="#22"/>
            </g>
          </g>
        </g>
        <g id="24">
          <title>Group</title>
          <g id="25">
            <title>Group</title>
            <g id="26">
              <title>Group</title>
              <defs>
                <title>Shape 5</title>
                <g id="27">
                  <defs>
                    <path id="28" d="M23.9568,27.172 C23.9568,27.0627,23.9928,26.976,24.0648,26.912 C24.1368,26.848,24.2328,26.816,24.3528,26.816 C24.4728,26.816,24.5681,26.848,24.6388,26.912 C24.7095,26.976,24.7448,27.0627,24.7448,27.172 C24.7448,27.2813,24.7101,27.368,24.6408,27.432 C24.5688,27.496,24.4728,27.528,24.3528,27.528 C24.2328,27.528,24.1368,27.496,24.0648,27.432 C23.9928,27.368,23.9568,27.2813,23.9568,27.172 z M25.0488,27.172 C25.0488,27.0627,25.0848,26.976,25.1568,26.912 C25.2288,26.848,25.3248,26.816,25.4448,26.816 C25.5648,26.816,25.6601,26.848,25.7308,26.912 C25.8015,26.976,25.8368,27.0627,25.8368,27.172 C25.8368,27.2813,25.8021,27.368,25.7328,27.432 C25.6608,27.496,25.5648,27.528,25.4448,27.528 C25.3248,27.528,25.2288,27.496,25.1568,27.432 C25.0848,27.368,25.0488,27.2813,25.0488,27.172 z M26.1408,27.172 C26.1408,27.0627,26.1768,26.976,26.2488,26.912 C26.3208,26.848,26.4168,26.816,26.5368,26.816 C26.6568,26.816,26.7521,26.848,26.8228,26.912 C26.8935,26.976,26.9288,27.0627,26.9288,27.172 C26.9288,27.2813,26.8941,27.368,26.8248,27.432 C26.7528,27.496,26.6568,27.528,26.5368,27.528 C26.4168,27.528,26.3208,27.496,26.2488,27.432 C26.1768,27.368,26.1408,27.2813,26.1408,27.172 z M27.9488,24.828 C28.0128,24.772,28.1021,24.7233,28.2168,24.682 C28.3315,24.6407,28.4368,24.62,28.5328,24.62 C28.7275,24.62,28.8248,24.7027,28.8248,24.868 C28.8248,24.868,28.8248,27.06,28.8248,27.06 C28.8248,27.2253,28.8421,27.3533,28.8768,27.444 C28.8021,27.5027,28.6715,27.532,28.4848,27.532 C28.3115,27.532,28.1888,27.5053,28.1168,27.452 C28.0448,27.3987,28.0088,27.304,28.0088,27.168 C28.0088,27.168,28.0088,25.264,28.0088,25.264 C28.0088,25.0133,27.9888,24.868,27.9488,24.828 z M29.2248,25.704 C29.2861,25.648,29.3741,25.5993,29.4888,25.558 C29.6035,25.5167,29.7088,25.496,29.8048,25.496 C29.9808,25.496,30.0688,25.58,30.0688,25.748 C30.0688,25.748,30.0688,25.944,30.0688,25.944 C30.1488,25.808,30.2648,25.6967,30.4168,25.61 C30.5688,25.5233,30.7315,25.48,30.9048,25.48 C31.1021,25.48,31.2561,25.536,31.3668,25.648 C31.4775,25.76,31.5328,25.916,31.5328,26.116 C31.5328,26.2067,31.5288,26.3333,31.5208,26.496 C31.5128,26.6587,31.5088,26.7773,31.5088,26.852 C31.5088,26.972,31.5555,27.032,31.6488,27.032 C31.7101,27.032,31.7621,27.0107,31.8048,26.968 C31.8395,27.0027,31.8568,27.0467,31.8568,27.1 C31.8568,27.2013,31.7961,27.2933,31.6748,27.376 C31.5535,27.4587,31.4021,27.5,31.2208,27.5 C31.0421,27.5,30.9128,27.462,30.8328,27.386 C30.7528,27.31,30.7128,27.176,30.7128,26.984 C30.7128,26.904,30.7168,26.7713,30.7248,26.586 C30.7328,26.4007,30.7368,26.288,30.7368,26.248 C30.7368,26.072,30.6688,25.984,30.5328,25.984 C30.4181,25.984,30.3128,26.0313,30.2168,26.126 C30.1208,26.2207,30.0728,26.3147,30.0728,26.408 C30.0728,26.408,30.0728,27.028,30.0728,27.028 C30.0728,27.1933,30.0901,27.3213,30.1248,27.412 C30.0501,27.4707,29.9208,27.5,29.7368,27.5 C29.5688,27.5,29.4515,27.4733,29.3848,27.42 C29.3181,27.3667,29.2848,27.272,29.2848,27.136 C29.2848,27.136,29.2848,26.14,29.2848,26.14 C29.2848,25.8893,29.2648,25.744,29.2248,25.704 z M31.8128,25.792 C31.8128,25.7227,31.8335,25.6653,31.8748,25.62 C31.9161,25.5747,31.9741,25.552,32.0488,25.552 C32.0488,25.552,32.1608,25.552,32.1608,25.552 C32.1608,25.552,32.1608,25.348,32.1608,25.348 C32.1608,25.1453,32.2588,24.9733,32.4548,24.832 C32.6508,24.6907,32.8928,24.62,33.1808,24.62 C33.5541,24.62,33.7408,24.7093,33.7408,24.888 C33.7408,24.9547,33.7135,25.0127,33.6588,25.062 C33.6041,25.1113,33.5408,25.144,33.4688,25.16 C33.3941,25.0507,33.2928,24.996,33.1648,24.996 C33.0208,24.996,32.9488,25.0987,32.9488,25.304 C32.9488,25.304,32.9488,25.552,32.9488,25.552 C32.9488,25.552,33.6368,25.552,33.6368,25.552 C33.6608,25.5973,33.6728,25.6493,33.6728,25.708 C33.6728,25.8813,33.5995,25.968,33.4528,25.968 C33.4528,25.968,32.9488,25.968,32.9488,25.968 C32.9488,25.968,32.9488,27.028,32.9488,27.028 C32.9488,27.1933,32.9661,27.3213,33.0008,27.412 C32.9261,27.4707,32.7968,27.5,32.6128,27.5 C32.4475,27.5,32.3308,27.4733,32.2628,27.42 C32.1948,27.3667,32.1608,27.272,32.1608,27.136 C32.1608,27.136,32.1608,25.968,32.1608,25.968 C32.1608,25.968,31.8448,25.968,31.8448,25.968 C31.8235,25.912,31.8128,25.8533,31.8128,25.792 z M34.0608,25.756 C34.2928,25.572,34.5781,25.48,34.9168,25.48 C35.2475,25.48,35.5121,25.5693,35.7108,25.748 C35.9095,25.9267,36.0088,26.172,36.0088,26.484 C36.0088,26.8147,35.8935,27.072,35.6628,27.256 C35.4321,27.44,35.1475,27.532,34.8088,27.532 C34.4781,27.532,34.2128,27.4427,34.0128,27.264 C33.8128,27.0853,33.7128,26.8413,33.7128,26.532 C33.7128,26.2013,33.8288,25.9427,34.0608,25.756 z M34.5928,27.012 C34.6595,27.1213,34.7488,27.176,34.8608,27.176 C34.9755,27.176,35.0668,27.1213,35.1348,27.012 C35.2028,26.9027,35.2368,26.7347,35.2368,26.508 C35.2368,26.2813,35.2028,26.1133,35.1348,26.004 C35.0668,25.8947,34.9755,25.84,34.8608,25.84 C34.7488,25.84,34.6588,25.8947,34.5908,26.004 C34.5228,26.1133,34.4888,26.2813,34.4888,26.508 C34.4888,26.7347,34.5235,26.9027,34.5928,27.012 z M36.2648,25.72 C36.3261,25.664,36.4141,25.6153,36.5288,25.574 C36.6435,25.5327,36.7488,25.512,36.8448,25.512 C37.0208,25.512,37.1088,25.596,37.1088,25.764 C37.1088,25.764,37.1088,26,37.1088,26 C37.1808,25.848,37.2675,25.7267,37.3688,25.636 C37.4701,25.5453,37.5755,25.5,37.6848,25.5 C37.7701,25.5,37.8361,25.528,37.8828,25.584 C37.9295,25.64,37.9528,25.7107,37.9528,25.796 C37.9528,25.9853,37.8995,26.112,37.7928,26.176 C37.7048,26.1253,37.6115,26.1,37.5128,26.1 C37.4248,26.1,37.3455,26.126,37.2748,26.178 C37.2041,26.23,37.1501,26.3067,37.1128,26.408 C37.1128,26.408,37.1128,27.028,37.1128,27.028 C37.1128,27.1933,37.1301,27.3213,37.1648,27.412 C37.0901,27.4707,36.9608,27.5,36.7768,27.5 C36.6088,27.5,36.4915,27.4733,36.4248,27.42 C36.3581,27.3667,36.3248,27.272,36.3248,27.136 C36.3248,27.136,36.3248,26.156,36.3248,26.156 C36.3248,25.9053,36.3048,25.76,36.2648,25.72 z M38.4128,25.556 C38.5275,25.516,38.6328,25.496,38.7288,25.496 C38.9048,25.496,38.9928,25.58,38.9928,25.748 C38.9928,25.748,38.9928,25.944,38.9928,25.944 C39.0755,25.8053,39.1881,25.6933,39.3308,25.608 C39.4735,25.5227,39.6248,25.48,39.7848,25.48 C39.9448,25.48,40.0768,25.5193,40.1808,25.598 C40.2848,25.6767,40.3515,25.7907,40.3808,25.94 C40.4635,25.804,40.5795,25.6933,40.7288,25.608 C40.8781,25.5227,41.0341,25.48,41.1968,25.48 C41.3888,25.48,41.5408,25.5353,41.6528,25.646 C41.7648,25.7567,41.8208,25.9133,41.8208,26.116 C41.8208,26.2067,41.8168,26.3333,41.8088,26.496 C41.8008,26.6587,41.7968,26.7773,41.7968,26.852 C41.7968,26.972,41.8435,27.032,41.9368,27.032 C41.9981,27.032,42.0501,27.0107,42.0928,26.968 C42.1275,27.0027,42.1448,27.0467,42.1448,27.1 C42.1448,27.2013,42.0841,27.2933,41.9628,27.376 C41.8415,27.4587,41.6901,27.5,41.5088,27.5 C41.3275,27.5,41.1968,27.462,41.1168,27.386 C41.0368,27.31,40.9968,27.176,40.9968,26.984 C40.9968,26.904,41.0015,26.7713,41.0108,26.586 C41.0201,26.4007,41.0248,26.288,41.0248,26.248 C41.0248,26.072,40.9581,25.984,40.8248,25.984 C40.7181,25.984,40.6201,26.0313,40.5308,26.126 C40.4415,26.2207,40.3968,26.3147,40.3968,26.408 C40.3968,26.408,40.3968,27.028,40.3968,27.028 C40.3968,27.1853,40.4155,27.3133,40.4528,27.412 C40.3808,27.4707,40.2555,27.5,40.0768,27.5 C39.9088,27.5,39.7908,27.4733,39.7228,27.42 C39.6548,27.3667,39.6208,27.272,39.6208,27.136 C39.6208,27.136,39.6208,26.248,39.6208,26.248 C39.6208,26.072,39.5541,25.984,39.4208,25.984 C39.3141,25.984,39.2168,26.0313,39.1288,26.126 C39.0408,26.2207,38.9968,26.3147,38.9968,26.408 C38.9968,26.408,38.9968,27.028,38.9968,27.028 C38.9968,27.1933,39.0141,27.3213,39.0488,27.412 C38.9741,27.4707,38.8448,27.5,38.6608,27.5 C38.4928,27.5,38.3755,27.4733,38.3088,27.42 C38.2421,27.3667,38.2088,27.272,38.2088,27.136 C38.2088,27.136,38.2088,26.14,38.2088,26.14 C38.2088,25.8893,38.1888,25.744,38.1488,25.704 C38.2101,25.648,38.2981,25.5987,38.4128,25.556 z M42.2688,26.6 C42.2688,26.272,42.3681,26.0033,42.5668,25.794 C42.7655,25.5847,43.0128,25.48,43.3088,25.48 C43.5515,25.48,43.7488,25.556,43.9008,25.708 C44.0448,25.6147,44.1875,25.568,44.3288,25.568 C44.4861,25.568,44.5648,25.6427,44.5648,25.792 C44.5648,25.792,44.5648,26.852,44.5648,26.852 C44.5648,26.9693,44.6075,27.028,44.6928,27.028 C44.7488,27.028,44.8035,27.008,44.8568,26.968 C44.8915,27.0053,44.9088,27.0507,44.9088,27.104 C44.9088,27.2027,44.8475,27.2933,44.7248,27.376 C44.6021,27.4587,44.4595,27.5,44.2968,27.5 C44.0061,27.5,43.8555,27.3533,43.8448,27.06 C43.7995,27.212,43.7101,27.3287,43.5768,27.41 C43.4435,27.4913,43.2888,27.532,43.1128,27.532 C42.8621,27.532,42.6588,27.4473,42.5028,27.278 C42.3468,27.1087,42.2688,26.8827,42.2688,26.6 z M43.1448,26.968 C43.2115,27.0667,43.3008,27.116,43.4128,27.116 C43.6555,27.116,43.7768,26.9,43.7768,26.468 C43.7768,26.468,43.7768,25.984,43.7768,25.984 C43.6888,25.8827,43.5848,25.832,43.4648,25.832 C43.3368,25.832,43.2341,25.892,43.1568,26.012 C43.0795,26.132,43.0408,26.3027,43.0408,26.524 C43.0408,26.7213,43.0755,26.8693,43.1448,26.968 z M44.9488,25.616 C44.9861,25.5733,45.0421,25.552,45.1168,25.552 C45.1168,25.552,45.2088,25.552,45.2088,25.552 C45.2088,25.552,45.2088,25.488,45.2088,25.488 C45.2088,25.2373,45.1888,25.092,45.1488,25.052 C45.2128,24.996,45.3008,24.9473,45.4128,24.906 C45.5248,24.8647,45.6275,24.844,45.7208,24.844 C45.8995,24.844,45.9888,24.928,45.9888,25.096 C45.9888,25.096,45.9888,25.552,45.9888,25.552 C45.9888,25.552,46.6608,25.552,46.6608,25.552 C46.6848,25.5973,46.6968,25.6493,46.6968,25.708 C46.6968,25.8787,46.6235,25.964,46.4768,25.964 C46.4768,25.964,45.9888,25.964,45.9888,25.964 C45.9888,25.964,45.9888,26.704,45.9888,26.704 C45.9888,26.824,46.0135,26.9093,46.0628,26.96 C46.1121,27.0107,46.1848,27.036,46.2808,27.036 C46.3635,27.036,46.4395,27.0207,46.5088,26.99 C46.5781,26.9593,46.6288,26.924,46.6608,26.884 C46.7141,26.916,46.7408,26.972,46.7408,27.052 C46.7408,27.1853,46.6655,27.2987,46.5148,27.392 C46.3641,27.4853,46.1728,27.532,45.9408,27.532 C45.6981,27.532,45.5155,27.4753,45.3928,27.362 C45.2701,27.2487,45.2088,27.088,45.2088,26.88 C45.2088,26.88,45.2088,25.964,45.2088,25.964 C45.2088,25.964,44.9168,25.964,44.9168,25.964 C44.8981,25.9027,44.8888,25.8453,44.8888,25.792 C44.8888,25.72,44.9088,25.6613,44.9488,25.616 z M47.2088,25.556 C47.3235,25.516,47.4288,25.496,47.5248,25.496 C47.7035,25.496,47.7928,25.58,47.7928,25.748 C47.7928,25.748,47.7928,26.852,47.7928,26.852 C47.7928,26.972,47.8355,27.032,47.9208,27.032 C47.9715,27.032,48.0248,27.0107,48.0808,26.968 C48.1155,27.0053,48.1328,27.0507,48.1328,27.104 C48.1328,27.208,48.0755,27.3,47.9608,27.38 C47.8461,27.46,47.6955,27.5,47.5088,27.5 C47.3381,27.5,47.2115,27.4593,47.1288,27.378 C47.0461,27.2967,47.0048,27.1627,47.0048,26.976 C47.0048,26.976,47.0048,26.14,47.0048,26.14 C47.0048,25.8893,46.9848,25.744,46.9448,25.704 C47.0061,25.648,47.0941,25.5987,47.2088,25.556 z M47.1088,24.744 C47.2101,24.672,47.3315,24.636,47.4728,24.636 C47.5795,24.636,47.6655,24.6593,47.7308,24.706 C47.7961,24.7527,47.8288,24.8133,47.8288,24.888 C47.8288,24.984,47.7768,25.0673,47.6728,25.138 C47.5688,25.2087,47.4461,25.244,47.3048,25.244 C47.1981,25.244,47.1128,25.2213,47.0488,25.176 C46.9848,25.1307,46.9528,25.0707,46.9528,24.996 C46.9528,24.9,47.0048,24.816,47.1088,24.744 z M48.6008,25.756 C48.8328,25.572,49.1181,25.48,49.4568,25.48 C49.7875,25.48,50.0521,25.5693,50.2508,25.748 C50.4495,25.9267,50.5488,26.172,50.5488,26.484 C50.5488,26.8147,50.4335,27.072,50.2028,27.256 C49.9721,27.44,49.6875,27.532,49.3488,27.532 C49.0181,27.532,48.7528,27.4427,48.5528,27.264 C48.3528,27.0853,48.2528,26.8413,48.2528,26.532 C48.2528,26.2013,48.3688,25.9427,48.6008,25.756 z M49.1328,27.012 C49.1995,27.1213,49.2888,27.176,49.4008,27.176 C49.5155,27.176,49.6068,27.1213,49.6748,27.012 C49.7428,26.9027,49.7768,26.7347,49.7768,26.508 C49.7768,26.2813,49.7428,26.1133,49.6748,26.004 C49.6068,25.8947,49.5155,25.84,49.4008,25.84 C49.2888,25.84,49.1988,25.8947,49.1308,26.004 C49.0628,26.1133,49.0288,26.2813,49.0288,26.508 C49.0288,26.7347,49.0635,26.9027,49.1328,27.012 z M50.8048,25.704 C50.8661,25.648,50.9541,25.5993,51.0688,25.558 C51.1835,25.5167,51.2888,25.496,51.3848,25.496 C51.5608,25.496,51.6488,25.58,51.6488,25.748 C51.6488,25.748,51.6488,25.944,51.6488,25.944 C51.7288,25.808,51.8448,25.6967,51.9968,25.61 C52.1488,25.5233,52.3115,25.48,52.4848,25.48 C52.6821,25.48,52.8361,25.536,52.9468,25.648 C53.0575,25.76,53.1128,25.916,53.1128,26.116 C53.1128,26.2067,53.1088,26.3333,53.1008,26.496 C53.0928,26.6587,53.0888,26.7773,53.0888,26.852 C53.0888,26.972,53.1355,27.032,53.2288,27.032 C53.2901,27.032,53.3421,27.0107,53.3848,26.968 C53.4195,27.0027,53.4368,27.0467,53.4368,27.1 C53.4368,27.2013,53.3761,27.2933,53.2548,27.376 C53.1335,27.4587,52.9821,27.5,52.8008,27.5 C52.6221,27.5,52.4928,27.462,52.4128,27.386 C52.3328,27.31,52.2928,27.176,52.2928,26.984 C52.2928,26.904,52.2968,26.7713,52.3048,26.586 C52.3128,26.4007,52.3168,26.288,52.3168,26.248 C52.3168,26.072,52.2488,25.984,52.1128,25.984 C51.9981,25.984,51.8928,26.0313,51.7968,26.126 C51.7008,26.2207,51.6528,26.3147,51.6528,26.408 C51.6528,26.408,51.6528,27.028,51.6528,27.028 C51.6528,27.1933,51.6701,27.3213,51.7048,27.412 C51.6301,27.4707,51.5008,27.5,51.3168,27.5 C51.1488,27.5,51.0315,27.4733,50.9648,27.42 C50.8981,27.3667,50.8648,27.272,50.8648,27.136 C50.8648,27.136,50.8648,26.14,50.8648,26.14 C50.8648,25.8893,50.8448,25.744,50.8048,25.704 z M54.1568,25.792 C54.1568,25.7227,54.1775,25.6653,54.2188,25.62 C54.2601,25.5747,54.3181,25.552,54.3928,25.552 C54.3928,25.552,54.5048,25.552,54.5048,25.552 C54.5048,25.552,54.5048,25.348,54.5048,25.348 C54.5048,25.1453,54.6028,24.9733,54.7988,24.832 C54.9948,24.6907,55.2368,24.62,55.5248,24.62 C55.8981,24.62,56.0848,24.7093,56.0848,24.888 C56.0848,24.9547,56.0575,25.0127,56.0028,25.062 C55.9481,25.1113,55.8848,25.144,55.8128,25.16 C55.7381,25.0507,55.6368,24.996,55.5088,24.996 C55.3648,24.996,55.2928,25.0987,55.2928,25.304 C55.2928,25.304,55.2928,25.552,55.2928,25.552 C55.2928,25.552,55.9808,25.552,55.9808,25.552 C56.0048,25.5973,56.0168,25.6493,56.0168,25.708 C56.0168,25.8813,55.9435,25.968,55.7968,25.968 C55.7968,25.968,55.2928,25.968,55.2928,25.968 C55.2928,25.968,55.2928,27.028,55.2928,27.028 C55.2928,27.1933,55.3101,27.3213,55.3448,27.412 C55.2701,27.4707,55.1408,27.5,54.9568,27.5 C54.7915,27.5,54.6748,27.4733,54.6068,27.42 C54.5388,27.3667,54.5048,27.272,54.5048,27.136 C54.5048,27.136,54.5048,25.968,54.5048,25.968 C54.5048,25.968,54.1888,25.968,54.1888,25.968 C54.1675,25.912,54.1568,25.8533,54.1568,25.792 z M56.4048,25.756 C56.6368,25.572,56.9221,25.48,57.2608,25.48 C57.5915,25.48,57.8561,25.5693,58.0548,25.748 C58.2535,25.9267,58.3528,26.172,58.3528,26.484 C58.3528,26.8147,58.2375,27.072,58.0068,27.256 C57.7761,27.44,57.4915,27.532,57.1528,27.532 C56.8221,27.532,56.5568,27.4427,56.3568,27.264 C56.1568,27.0853,56.0568,26.8413,56.0568,26.532 C56.0568,26.2013,56.1728,25.9427,56.4048,25.756 z M56.9368,27.012 C57.0035,27.1213,57.0928,27.176,57.2048,27.176 C57.3195,27.176,57.4108,27.1213,57.4788,27.012 C57.5468,26.9027,57.5808,26.7347,57.5808,26.508 C57.5808,26.2813,57.5468,26.1133,57.4788,26.004 C57.4108,25.8947,57.3195,25.84,57.2048,25.84 C57.0928,25.84,57.0028,25.8947,56.9348,26.004 C56.8668,26.1133,56.8328,26.2813,56.8328,26.508 C56.8328,26.7347,56.8675,26.9027,56.9368,27.012 z M58.6088,25.72 C58.6701,25.664,58.7581,25.6153,58.8728,25.574 C58.9875,25.5327,59.0928,25.512,59.1888,25.512 C59.3648,25.512,59.4528,25.596,59.4528,25.764 C59.4528,25.764,59.4528,26,59.4528,26 C59.5248,25.848,59.6115,25.7267,59.7128,25.636 C59.8141,25.5453,59.9195,25.5,60.0288,25.5 C60.1141,25.5,60.1801,25.528,60.2268,25.584 C60.2735,25.64,60.2968,25.7107,60.2968,25.796 C60.2968,25.9853,60.2435,26.112,60.1368,26.176 C60.0488,26.1253,59.9555,26.1,59.8568,26.1 C59.7688,26.1,59.6895,26.126,59.6188,26.178 C59.5481,26.23,59.4941,26.3067,59.4568,26.408 C59.4568,26.408,59.4568,27.028,59.4568,27.028 C59.4568,27.1933,59.4741,27.3213,59.5088,27.412 C59.4341,27.4707,59.3048,27.5,59.1208,27.5 C58.9528,27.5,58.8355,27.4733,58.7688,27.42 C58.7021,27.3667,58.6688,27.272,58.6688,27.136 C58.6688,27.136,58.6688,26.156,58.6688,26.156 C58.6688,25.9053,58.6488,25.76,58.6088,25.72 z M61.2368,24.848 C61.2395,24.8267,61.2575,24.8027,61.2908,24.776 C61.3241,24.7493,61.3828,24.724,61.4668,24.7 C61.5508,24.676,61.6488,24.664,61.7608,24.664 C61.7608,24.664,62.9968,24.664,62.9968,24.664 C63.1835,24.664,63.3261,24.6493,63.4248,24.62 C63.4621,24.6813,63.4808,24.76,63.4808,24.856 C63.4808,24.9573,63.4568,25.038,63.4088,25.098 C63.3608,25.158,63.2661,25.188,63.1248,25.188 C63.1248,25.188,62.1128,25.188,62.1128,25.188 C62.1128,25.188,62.1128,25.872,62.1128,25.872 C62.1128,25.872,63.1048,25.844,63.1048,25.844 C63.1235,25.932,63.1328,26.0013,63.1328,26.052 C63.1328,26.2547,63.0475,26.356,62.8768,26.356 C62.6288,26.356,62.3741,26.352,62.1128,26.344 C62.1128,26.344,62.1128,26.644,62.1128,26.644 C62.1128,26.7907,62.1468,26.8947,62.2148,26.956 C62.2828,27.0173,62.4021,27.048,62.5728,27.048 C62.7435,27.048,62.9021,27.0213,63.0488,26.968 C63.1955,26.9147,63.3061,26.8427,63.3808,26.752 C63.4208,26.784,63.4581,26.8313,63.4928,26.894 C63.5275,26.9567,63.5448,27.0227,63.5448,27.092 C63.5448,27.236,63.4488,27.352,63.2568,27.44 C63.0648,27.528,62.7968,27.572,62.4528,27.572 C62.0608,27.572,61.7701,27.5047,61.5808,27.37 C61.3915,27.2353,61.2968,27.012,61.2968,26.7 C61.2968,26.7,61.2968,25.328,61.2968,25.328 C61.2968,25.0533,61.2768,24.8933,61.2368,24.848 z M63.6968,25.944 C63.7261,25.8373,63.8055,25.7367,63.9348,25.642 C64.0641,25.5473,64.1928,25.5,64.3208,25.5 C64.3821,25.5,64.4368,25.514,64.4848,25.542 C64.5328,25.57,64.5695,25.6013,64.5948,25.636 C64.6201,25.6707,64.6581,25.7267,64.7088,25.804 C64.7595,25.8813,64.8035,25.9453,64.8408,25.996 C64.8408,25.996,64.9808,26.184,64.9808,26.184 C65.1995,25.8987,65.3088,25.6787,65.3088,25.524 C65.3621,25.5053,65.4261,25.496,65.5008,25.496 C65.5995,25.496,65.6835,25.5153,65.7528,25.554 C65.8221,25.5927,65.8568,25.6453,65.8568,25.712 C65.8568,25.7733,65.8068,25.8607,65.7068,25.974 C65.6068,26.0873,65.4408,26.2587,65.2088,26.488 C65.2088,26.488,65.3168,26.636,65.3168,26.636 C65.3301,26.6547,65.3581,26.6927,65.4008,26.75 C65.4435,26.8073,65.4728,26.8453,65.4888,26.864 C65.5048,26.8827,65.5288,26.908,65.5608,26.94 C65.5928,26.972,65.6228,26.9933,65.6508,27.004 C65.6788,27.0147,65.7088,27.02,65.7408,27.02 C65.8048,27.02,65.8595,27.0027,65.9048,26.968 C65.9368,27.0053,65.9528,27.0453,65.9528,27.088 C65.9528,27.1973,65.8975,27.2933,65.7868,27.376 C65.6761,27.4587,65.5261,27.5,65.3368,27.5 C65.1982,27.5,65.0842,27.47,64.9948,27.41 C64.9055,27.35,64.8155,27.26,64.7248,27.14 C64.7248,27.14,64.5568,26.916,64.5568,26.916 C64.3835,27.1667,64.2955,27.3533,64.2928,27.476 C64.2288,27.4947,64.1568,27.504,64.0768,27.504 C63.9808,27.504,63.9015,27.4853,63.8388,27.448 C63.7761,27.4107,63.7448,27.3587,63.7448,27.292 C63.7448,27.2387,63.7835,27.166,63.8608,27.074 C63.9381,26.982,64.0661,26.8467,64.2448,26.668 C64.2448,26.668,64.3168,26.596,64.3168,26.596 C64.3168,26.596,64.0888,26.288,64.0888,26.288 C63.9421,26.088,63.8115,25.9733,63.6968,25.944 z M66.3848,25.784 C66.5955,25.5813,66.8808,25.48,67.2408,25.48 C67.4915,25.48,67.6975,25.5273,67.8588,25.622 C68.0201,25.7167,68.1008,25.828,68.1008,25.956 C68.1008,26.0573,68.0481,26.1387,67.9428,26.2 C67.8375,26.2613,67.7195,26.292,67.5888,26.292 C67.5728,26.292,67.5568,26.292,67.5408,26.292 C67.5061,25.988,67.3968,25.836,67.2128,25.836 C67.0982,25.836,67.0075,25.8893,66.9408,25.996 C66.8741,26.1027,66.8408,26.2413,66.8408,26.412 C66.8408,26.62,66.8888,26.7773,66.9848,26.884 C67.0808,26.9907,67.2181,27.044,67.3968,27.044 C67.6448,27.044,67.8595,26.9533,68.0408,26.772 C68.1128,26.812,68.1488,26.8787,68.1488,26.972 C68.1488,27.124,68.0548,27.2553,67.8668,27.366 C67.6788,27.4767,67.4475,27.532,67.1728,27.532 C66.8341,27.532,66.5655,27.4447,66.3668,27.27 C66.1682,27.0953,66.0688,26.8587,66.0688,26.56 C66.0688,26.248,66.1741,25.9893,66.3848,25.784 z M68.3128,26.568 C68.3128,26.2587,68.4308,26,68.6668,25.792 C68.9028,25.584,69.1941,25.48,69.5408,25.48 C69.7781,25.48,69.9715,25.534,70.1208,25.642 C70.2701,25.75,70.3448,25.888,70.3448,26.056 C70.3448,26.2373,70.2461,26.394,70.0488,26.526 C69.8515,26.658,69.5528,26.7267,69.1528,26.732 C69.2248,26.9587,69.3901,27.072,69.6488,27.072 C69.7768,27.072,69.8995,27.0467,70.0168,26.996 C70.1341,26.9453,70.2301,26.8773,70.3048,26.792 C70.3661,26.8213,70.3968,26.8827,70.3968,26.976 C70.3968,27.136,70.3035,27.2687,70.1168,27.374 C69.9301,27.4793,69.7021,27.532,69.4328,27.532 C69.1048,27.532,68.8361,27.4453,68.6268,27.272 C68.4175,27.0987,68.3128,26.864,68.3128,26.568 z M69.1168,26.512 C69.2102,26.504,69.3028,26.4827,69.3948,26.448 C69.4868,26.4133,69.5681,26.3607,69.6388,26.29 C69.7095,26.2193,69.7448,26.14,69.7448,26.052 C69.7448,25.9773,69.7241,25.918,69.6828,25.874 C69.6415,25.83,69.5848,25.808,69.5128,25.808 C69.3928,25.808,69.2961,25.864,69.2228,25.976 C69.1495,26.088,69.1128,26.2413,69.1128,26.436 C69.1128,26.4707,69.1142,26.496,69.1168,26.512 z M70.6248,24.828 C70.6861,24.772,70.7741,24.7233,70.8888,24.682 C71.0035,24.6407,71.1088,24.62,71.2048,24.62 C71.3808,24.62,71.4688,24.704,71.4688,24.872 C71.4688,24.872,71.4688,26.852,71.4688,26.852 C71.4688,26.972,71.5128,27.032,71.6008,27.032 C71.6515,27.032,71.7048,27.0107,71.7608,26.968 C71.7955,27.0053,71.8128,27.0507,71.8128,27.104 C71.8128,27.208,71.7555,27.3,71.6408,27.38 C71.5261,27.46,71.3755,27.5,71.1888,27.5 C71.0181,27.5,70.8908,27.4593,70.8068,27.378 C70.7228,27.2967,70.6808,27.1627,70.6808,26.976 C70.6808,26.976,70.6808,25.264,70.6808,25.264 C70.6808,25.016,70.6621,24.8707,70.6248,24.828 z M71.9648,24.828 C72.0261,24.772,72.1142,24.7233,72.2288,24.682 C72.3435,24.6407,72.4488,24.62,72.5448,24.62 C72.7208,24.62,72.8088,24.704,72.8088,24.872 C72.8088,24.872,72.8088,26.852,72.8088,26.852 C72.8088,26.972,72.8528,27.032,72.9408,27.032 C72.9915,27.032,73.0448,27.0107,73.1008,26.968 C73.1355,27.0053,73.1528,27.0507,73.1528,27.104 C73.1528,27.208,73.0955,27.3,72.9808,27.38 C72.8661,27.46,72.7155,27.5,72.5288,27.5 C72.3581,27.5,72.2308,27.4593,72.1468,27.378 C72.0628,27.2967,72.0208,27.1627,72.0208,26.976 C72.0208,26.976,72.0208,25.264,72.0208,25.264 C72.0208,25.016,72.0021,24.8707,71.9648,24.828 z M73.2768,26.568 C73.2768,26.2587,73.3948,26,73.6308,25.792 C73.8668,25.584,74.1581,25.48,74.5048,25.48 C74.7421,25.48,74.9355,25.534,75.0848,25.642 C75.2341,25.75,75.3088,25.888,75.3088,26.056 C75.3088,26.2373,75.2101,26.394,75.0128,26.526 C74.8155,26.658,74.5168,26.7267,74.1168,26.732 C74.1888,26.9587,74.3541,27.072,74.6128,27.072 C74.7408,27.072,74.8635,27.0467,74.9808,26.996 C75.0982,26.9453,75.1942,26.8773,75.2688,26.792 C75.3301,26.8213,75.3608,26.8827,75.3608,26.976 C75.3608,27.136,75.2675,27.2687,75.0808,27.374 C74.8941,27.4793,74.6661,27.532,74.3968,27.532 C74.0688,27.532,73.8001,27.4453,73.5908,27.272 C73.3815,27.0987,73.2768,26.864,73.2768,26.568 z M74.0808,26.512 C74.1741,26.504,74.2668,26.4827,74.3588,26.448 C74.4508,26.4133,74.5321,26.3607,74.6028,26.29 C74.6735,26.2193,74.7088,26.14,74.7088,26.052 C74.7088,25.9773,74.6881,25.918,74.6468,25.874 C74.6055,25.83,74.5488,25.808,74.4768,25.808 C74.3568,25.808,74.2601,25.864,74.1868,25.976 C74.1135,26.088,74.0768,26.2413,74.0768,26.436 C74.0768,26.4707,74.0781,26.496,74.0808,26.512 z M75.5968,25.704 C75.6581,25.648,75.7461,25.5993,75.8608,25.558 C75.9755,25.5167,76.0808,25.496,76.1768,25.496 C76.3528,25.496,76.4408,25.58,76.4408,25.748 C76.4408,25.748,76.4408,25.944,76.4408,25.944 C76.5208,25.808,76.6368,25.6967,76.7888,25.61 C76.9408,25.5233,77.1035,25.48,77.2768,25.48 C77.4741,25.48,77.6281,25.536,77.7388,25.648 C77.8495,25.76,77.9048,25.916,77.9048,26.116 C77.9048,26.2067,77.9008,26.3333,77.8928,26.496 C77.8848,26.6587,77.8808,26.7773,77.8808,26.852 C77.8808,26.972,77.9275,27.032,78.0208,27.032 C78.0821,27.032,78.1341,27.0107,78.1768,26.968 C78.2115,27.0027,78.2288,27.0467,78.2288,27.1 C78.2288,27.2013,78.1681,27.2933,78.0468,27.376 C77.9255,27.4587,77.7741,27.5,77.5928,27.5 C77.4141,27.5,77.2848,27.462,77.2048,27.386 C77.1248,27.31,77.0848,27.176,77.0848,26.984 C77.0848,26.904,77.0888,26.7713,77.0968,26.586 C77.1048,26.4007,77.1088,26.288,77.1088,26.248 C77.1088,26.072,77.0408,25.984,76.9048,25.984 C76.7901,25.984,76.6848,26.0313,76.5888,26.126 C76.4928,26.2207,76.4448,26.3147,76.4448,26.408 C76.4448,26.408,76.4448,27.028,76.4448,27.028 C76.4448,27.1933,76.4622,27.3213,76.4968,27.412 C76.4221,27.4707,76.2928,27.5,76.1088,27.5 C75.9408,27.5,75.8235,27.4733,75.7568,27.42 C75.6901,27.3667,75.6568,27.272,75.6568,27.136 C75.6568,27.136,75.6568,26.14,75.6568,26.14 C75.6568,25.8893,75.6368,25.744,75.5968,25.704 z M78.6728,25.784 C78.8835,25.5813,79.1688,25.48,79.5288,25.48 C79.7795,25.48,79.9855,25.5273,80.1468,25.622 C80.3082,25.7167,80.3888,25.828,80.3888,25.956 C80.3888,26.0573,80.3361,26.1387,80.2308,26.2 C80.1255,26.2613,80.0075,26.292,79.8768,26.292 C79.8608,26.292,79.8448,26.292,79.8288,26.292 C79.7942,25.988,79.6848,25.836,79.5008,25.836 C79.3861,25.836,79.2955,25.8893,79.2288,25.996 C79.1621,26.1027,79.1288,26.2413,79.1288,26.412 C79.1288,26.62,79.1768,26.7773,79.2728,26.884 C79.3688,26.9907,79.5061,27.044,79.6848,27.044 C79.9328,27.044,80.1475,26.9533,80.3288,26.772 C80.4008,26.812,80.4368,26.8787,80.4368,26.972 C80.4368,27.124,80.3428,27.2553,80.1548,27.366 C79.9668,27.4767,79.7355,27.532,79.4608,27.532 C79.1221,27.532,78.8535,27.4447,78.6548,27.27 C78.4561,27.0953,78.3568,26.8587,78.3568,26.56 C78.3568,26.248,78.4621,25.9893,78.6728,25.784 z M80.6008,26.568 C80.6008,26.2587,80.7188,26,80.9548,25.792 C81.1908,25.584,81.4821,25.48,81.8288,25.48 C82.0661,25.48,82.2595,25.534,82.4088,25.642 C82.5582,25.75,82.6328,25.888,82.6328,26.056 C82.6328,26.2373,82.5341,26.394,82.3368,26.526 C82.1395,26.658,81.8408,26.7267,81.4408,26.732 C81.5128,26.9587,81.6781,27.072,81.9368,27.072 C82.0648,27.072,82.1875,27.0467,82.3048,26.996 C82.4221,26.9453,82.5181,26.8773,82.5928,26.792 C82.6542,26.8213,82.6848,26.8827,82.6848,26.976 C82.6848,27.136,82.5915,27.2687,82.4048,27.374 C82.2181,27.4793,81.9901,27.532,81.7208,27.532 C81.3928,27.532,81.1241,27.4453,80.9148,27.272 C80.7055,27.0987,80.6008,26.864,80.6008,26.568 z M81.4048,26.512 C81.4981,26.504,81.5908,26.4827,81.6828,26.448 C81.7748,26.4133,81.8561,26.3607,81.9268,26.29 C81.9975,26.2193,82.0328,26.14,82.0328,26.052 C82.0328,25.9773,82.0121,25.918,81.9708,25.874 C81.9295,25.83,81.8728,25.808,81.8008,25.808 C81.6808,25.808,81.5841,25.864,81.5108,25.976 C81.4375,26.088,81.4008,26.2413,81.4008,26.436 C81.4008,26.4707,81.4021,26.496,81.4048,26.512 z"/>
                  </defs>
                  <use xlink:href="#28" style="fill:#9f9f9f;fill-opacity:1;fill-rule:nonzero;opacity:1;stroke:none;"/>
                </g>
              </defs>
              <use xlink:href="#27"/>
            </g>
          </g>
        </g>
      </g>
    </g>
    <clipPath id="30">
      <use xlink:href="#29"/>
      <path id="29" d="M0,10.5775 C0,10.5775,90,10.5775,90,10.5775 C90,10.5775,90,30.5775,90,30.5775 C90,30.5775,0,30.5775,0,30.5775 C0,30.5775,0,10.5775,0,10.5775 z"/>
    </clipPath>
    <g id="31" style="clip-path:url(#30);"/>
  </g>
</svg>
